{
  "accessors": [
    {
      "bufferView": 1,
      "componentType": 5126,
      "count": 110,
      "max": [
        4.7137598991394043,
        1.2013399600982666,
        17.676540374755859
      ],
      "min": [
        -1.9912899732589722,
        -1.2013399600982666,
        -1
      ],
      "type": "VEC3"
    },
    {
      "bufferView": 1,
      "byteOffset": 1320,
      "componentType": 5126,
      "count": 110,
      "max": [
        0.92349714040756226,
        1,
        1
      ],
      "min": [
        -1,
        -1,
        -1
      ],
      "type": "VEC3"
    },
    {
      "bufferView": 0,
      "componentType": 5125,
      "count": 174,
      "max": [
        109
      ],
      "min": [
        0
      ],
      "type": "SCALAR"
    },
    {
      "bufferView": 1,
      "byteOffset": 2640,
      "componentType": 5126,
      "count": 293,
      "max": [
        2.2211101055145264,
        5.7399301528930664,
        6.5173802375793457
      ],
      "min": [
        9.9999997473787516e-06,
        -5.9541301727294922,
        -3.2314798831939697
      ],
      "type": "VEC3"
    },
    {
      "bufferView": 1,
      "byteOffset": 6156,
      "componentType": 5126,
      "count": 293,
      "max": [
        0.97484368085861206,
        0.99432843923568726,
        1
      ],
      "min": [
        -1,
        -0.99432843923568726,
        -1
      ],
      "type": "VEC3"
    },
    {
      "bufferView": 0,
      "byteOffset": 696,
      "componentType": 5125,
      "count": 462,
      "max": [
        292
      ],
      "min": [
        0
      ],
      "type": "SCALAR"
    }
  ],
  "asset": {
    "extras": {
      "author": "Vynatic (https://sketchfab.com/vynatic)",
      "license": "CC-BY-4.0 (http://creativecommons.org/licenses/by/4.0/)",
      "source": "https://sketchfab.com/models/6dc2461d7ae640179772bc23268b1e77",
      "title": "[Minimilistic] Wind Turbine"
    },
    "generator": "Sketchfab-3.18.7",
    "version": "2.0"
  },
  "bufferViews": [
    {
      "buffer": 0,
      "byteLength": 2544,
      "byteOffset": 0,
      "name": "floatBufferViews",
      "target": 34963
    },
    {
      "buffer": 0,
      "byteLength": 9672,
      "byteOffset": 2544,
      "byteStride": 12,
      "name": "floatBufferViews",
      "target": 34962
    }
  ],
  "buffers": [
    {
      "byteLength": 12216,
      "uri": "scene.bin"
    }
  ],
  "materials": [
    {
      "doubleSided": true,
      "emissiveFactor": [
        0,
        0,
        0
      ],
      "name": "White",
      "pbrMetallicRoughness": {
        "baseColorFactor": [
          1,
          1,
          1,
          1
        ],
        "metallicFactor": 0,
        "roughnessFactor": 0.59999999999999998
      }
    }
  ],
  "meshes": [
    {
      "name": "Body_0",
      "primitives": [
        {
          "attributes": {
            "NORMAL": 1,
            "POSITION": 0
          },
          "indices": 2,
          "material": 0,
          "mode": 4
        }
      ]
    },
    {
      "name": "Blades_0",
      "primitives": [
        {
          "attributes": {
            "NORMAL": 4,
            "POSITION": 3
          },
          "indices": 5,
          "material": 0,
          "mode": 4
        }
      ]
    }
  ],
  "nodes": [
    {
      "children": [
        1
      ],
      "name": "RootNode (gltf orientation matrix)",
      "rotation": [
        -0.70710678118654746,
        -0,
        -0,
        0.70710678118654757
      ]
    },
    {
      "children": [
        2
      ],
      "matrix": [
        0,
        1,
        0,
        0,
        -1,
        0,
        0,
        0,
        0,
        0,
        1,
        0,
        -1.2675083875656128,
        0.97577542066574097,
        0,
        1
      ],
      "name": "RootNode (model correction matrix)"
    },
    {
      "children": [
        3,
        5
      ],
      "name": "Root"
    },
    {
      "children": [
        4
      ],
      "matrix": [
        1,
        0,
        0,
        0,
        0,
        1,
        0,
        0,
        0,
        0,
        1,
        0,
        0,
        0,
        1.0416899999999998,
        1
      ],
      "name": "Body"
    },
    {
      "mesh": 0,
      "name": "Body_0"
    },
    {
      "children": [
        6
      ],
      "matrix": [
        1.35039,
        0,
        0,
        0,
        0,
        1.35039,
        0,
        0,
        0,
        0,
        1.35039,
        0,
        -4.7100499999999998,
        -0.0012400000000000004,
        17.675050000000002,
        1
      ],
      "name": "Blades"
    },
    {
      "mesh": 1,
      "name": "Blades_0"
    }
  ],
  "scene": 0,
  "scenes": [
    {
      "name": "OSG_Scene",
      "nodes": [
        0
      ]
    }
  ]
}

